# xmcd
# 
# Track frame offsets:
#     150
#     30908
#     67108
#     94201
#     108849
#     140891
#     159728
# 
# Disc length: 2484
# 
# Revision: 0
# Processed by: cddbd v1.5.2PL0 Copyright (c) Steve Scherf et al.
# Submitted via: fre:ac v1.0.31
# 
DISCID=5d09b207
DTITLE=Robin Trower - Live!
DYEAR=1976
DGENRE=Rock
TTITLE0=Too Rolling Stoned
TTITLE1=Daydream
TTITLE2=Rock Me Baby
TTITLE3=Lady Love
TTITLE4=I Can't Wait Much Longer
TTITLE5=Alethea
TTITLE6=Little Bit Of Sympathy
EXTD=Live!\n© 1988 Chrysalis Records\n\nOriginally Released 1976\nCD Edition Released 1988?\nRemastered and Expanded CD Edition Released July 26, 2011\n\nAMG EXPERT REVIEW:  An excellent recording of a superb 1975 stadium show in Sweden, Robin Trower's Live
EXTD=album is a perfect snapshot of the guitar hero in his prime. The record also gives ample evidence of why the Robin Trower Band was one of the most successful live guitar rock acts of the '70s, highlighting not only Trower's virtuoso Stratocaster lic
EXTD=ks, but the soulful vocals of bassist James Dewar and the polyrhythmic drumming of Bill Lordan. The song selection here is top-notch, the most obvious treat being the perennial Trower classic "Too Rolling Stoned," to which Lordon (who replaced Reg Is
EXTD=adore, drummer on the studio version of the song) contributes a somewhat funkier flavor. The same treatment is given to a blistering take on "Little Bit of Sympathy," which contains moments that recall the legendarily telepathic interplay between Jim
EXTD=i Hendrix and Mitch Mitchell. It's a mystery why James Dewar isn't generally recognized as one of the finest blue-eyed soul singers of the '70s, as he is easily as talented and convincing as Paul Rogers or Joe Cocker. Here, he's in excellent form and
EXTD=his vocals on the slow-burning "I Can't Wait Much Longer" are spine-tingling. Although none of the performances stray too far from the songs' studio versions, that fact is part of what makes this album interesting. Live shows the Robin Trower Band t
EXTD=o be a quintessential no-frills blues-rock band, capable of kicking serious ass no matter what the setting.  -- Pemberton Roach
EXTT0=
EXTT1=
EXTT2=
EXTT3=
EXTT4=
EXTT5=
EXTT6=
PLAYORDER=
